<svg width="83.2" height="146" viewBox="0 0 83.2 146" xmlns="http://www.w3.org/2000/svg"><g id="svgGroup" stroke-linecap="round" fill-rule="evenodd" font-size="9pt" stroke="#08cf0f" stroke-width="0.45mm" fill="#000" style="stroke:#08cf0f;stroke-width:0.45mm;fill:#000"><path d="M 9.8 146 L 0 146 L 0 0 L 15 0 L 35.4 56 Q 37 60.4 38.9 65.6 Q 40.6 70.252 41.579 73.463 A 77.077 77.077 0 0 1 41.8 74.2 A 92.896 92.896 0 0 1 42.594 71.65 Q 43.023 70.331 43.55 68.819 A 224.044 224.044 0 0 1 44.7 65.6 Q 46.6 60.4 48.2 56 L 68.4 0 L 83.2 0 L 83.2 146 L 73.4 146 L 73.4 58 Q 73.4 50.4 73.5 42.7 A 1006.723 1006.723 0 0 1 73.706 31.487 A 890.945 890.945 0 0 1 73.8 27.9 Q 74 20.8 74.1 14.9 A 465.627 465.627 0 0 1 74.156 12.069 Q 74.249 8.032 74.398 5.047 A 163.002 163.002 0 0 1 74.4 5 L 47 81 L 36.4 81 L 8.6 5 Q 8.799 8.976 8.998 14.83 A 1083.917 1083.917 0 0 1 9 14.9 Q 9.2 20.8 9.4 27.9 Q 9.6 35 9.7 42.7 Q 9.8 50.4 9.8 58 L 9.8 146 Z" vector-effect="non-scaling-stroke"/></g></svg>